<svg xmlns="http://www.w3.org/2000/svg" xmlns:xlink="http://www.w3.org/1999/xlink" width="595px" height="134px" viewBox="0 0 595 134" version="1.1" data-livestyle-extension="available"><script xmlns="" id="tinyhippos-injected"/>
    <!-- Generator: Sketch 41.2 (35397) - http://www.bohemiancoding.com/sketch -->
    <title>Group</title>
    <desc>Created with Sketch.</desc>
    <defs/>
    <g id="Page-1" stroke="none" stroke-width="1" fill="none" fill-rule="evenodd">
        <g id="Artboard" transform="translate(-95.000000, -444.000000)" fill="#FFFFFF">
            <g id="Group" transform="translate(95.000000, 444.000000)">
                <path d="M295.56,103 L295.56,62.168 C295.56,47.576 289.672,36.184 272.904,36.184 C263.432,36.184 257.416,39.512 250.12,47.192 L248.584,37.72 L239.368,37.72 L239.368,103 L251.4,103 L251.4,57.176 C258.056,50.008 262.664,46.168 270.6,46.168 C280.2,46.168 283.528,53.592 283.528,64.6 L283.528,103 L295.56,103 Z M461.432,37.72 L449.784,37.72 C445.944,55.384 440.696,73.688 435.448,90.584 L435.192,90.584 L419.832,37.72 L407.288,37.72 L392.312,90.584 L392.056,90.584 C386.68,73.944 381.688,55.768 377.72,37.72 L365.176,37.72 C370.296,59.352 376.952,81.624 384.76,103 L398.584,103 L412.792,53.08 L413.048,53.08 L427.896,103 L440.952,103 C449.016,81.24 455.928,59.48 461.432,37.72 Z M509.440001,84.056 C509.440001,73.688 502.912001,69.208 492.032001,65.624 C483.072001,62.424 479.104001,60.248 479.104001,54.872 C479.104001,50.52 482.176001,45.656 490.240001,45.656 C494.592001,45.656 499.456001,46.424 503.936001,47.96 L505.472001,38.488 C500.992001,37.08 495.360001,36.184 490.496001,36.184 C475.392001,36.184 466.688001,43.992 466.688001,56.024 C466.688001,66.52 473.344001,70.872 483.968001,74.584 C492.672001,77.528 496.768001,79.96 496.768001,85.208 C496.768001,91.736 491.648001,94.808 484.352001,94.808 C479.104001,94.808 472.960001,93.656 467.712001,91.864 L465.920001,101.976 C471.680001,103.64 478.080001,104.536 483.840001,104.536 C499.456001,104.536 509.440001,96.6 509.440001,84.056 Z" id="news"/>
                <path d="M345.830446,61.2299893 C345.830446,61.8182224 345.830446,62.8511886 345.668338,63.4133308 L316.755702,63.4133308 C318.299394,53.9541603 325.721898,46.3687975 333.135805,46.3687975 C340.88252,46.3687975 345.830446,54.2423472 345.830446,61.2299893 M358.669998,60.9548477 C358.669998,48.552139 349.234677,36 332.690011,36 C317.993604,36 303,48.6897098 303,70.5717502 C303,91.1433113 317.553951,105 335.012307,105 C343.190077,105 348.763095,103.24716 352.771542,100.923875 L355.569102,87.9329333 C350.314157,92.1727196 344.446402,94.364363 336.847055,94.364363 C322.946442,94.364363 316.458505,82.8285865 316.147802,73.3338375 L349.065202,73.3338375 L358.506664,64.1498083 C358.669998,63.280504 358.669998,61.8182224 358.669998,60.9548477" id="Fill-13"/>
                <path d="M42.8132531,69.3471311 C42.8132531,83.2716756 35.1148438,92.9875153 25.3947231,92.9875153 C19.7330093,92.9875153 14.8032148,90.8112898 11.8962843,87.7525558 L11.8962843,50.9440629 C14.8032148,48.0432145 19.7330093,45.5771396 25.3947231,45.5771396 C35.1148438,45.5771396 42.8132531,55.4308345 42.8132531,69.3471311 M55,69.3471311 C55,47.1854493 40.0515539,35 27.2954084,35 C19.7353144,35 13.795817,37.3093678 10.4485823,41.2352927 L10.017499,36.4504243 L0,36.4504243 L0,134 L11.8962843,134 L11.8962843,100.084108 C14.8032148,102.107161 19.5935412,103.552872 25.3947231,103.552872 C42.5274012,103.552872 55,89.34437 55,69.3471311" id="Fill-1-Copy"/>
                <path d="M101.29711,101.554143 L100.852272,95.4848379 C96.7497496,100.39534 92.346787,103 83.5525072,103 C70.9479934,103 62,94.4601501 62,81.1521484 L62,36 L74.0292521,36 L74.0292521,79.8533478 C74.0292521,86.497937 77.6904301,92.593124 86.6372591,92.593124 C95.288306,92.593124 99.9707477,86.497937 99.9707477,79.8533478 L99.9707477,36 L112,36 L112,101.554143 L101.29711,101.554143 Z" id="Fill-3-Copy"/>
                <path d="M556.5,109 C535.019539,109 518,91.3098222 518,69.0081342 C518,46.6876749 535.019539,29 556.5,29 C577.970708,29 595,46.6876749 595,69.0081342 C594.997563,91.3098222 577.96827,109 556.5,109 L556.5,109 Z M567.138431,36.5335929 C569.069587,39.4681903 570.91906,42.9684327 572.332073,46.5612809 C574.619225,45.5563847 576.679614,44.2974485 578.42058,43.186181 C575.155657,40.1589783 571.343329,37.918923 567.138431,36.5335929 L567.138431,36.5335929 Z M581.42826,46.3535437 C579.259366,47.8114567 576.675955,49.2768783 573.756057,50.6509457 C575.81035,56.3837345 576.997816,62.0164094 577.31114,66.7330392 L589.338199,66.7330392 C588.909053,58.874075 586.09644,51.7609617 581.42826,46.3535437 L581.42826,46.3535437 Z M561.168182,35.0906971 C560.283068,34.8566803 559.422337,34.7540632 558.678647,34.7540632 L558.678647,50.5270542 C561.805805,50.177906 565.282862,49.393261 568.414897,48.2682277 C566.473985,43.3989238 563.982013,39.0189277 561.168182,35.0906971 L561.168182,35.0906971 Z M569.832784,52.2102241 C566.038743,53.7920283 562.128883,54.7969246 558.678647,55.1335585 L558.678647,66.7305362 L572.966039,66.7305362 C572.647835,61.8962723 571.573752,57.0507453 569.832784,52.2102241 L569.832784,52.2102241 Z M554.321353,34.7540632 C553.574005,34.7540632 552.696205,34.8591831 551.831818,35.0906971 C549.01433,39.016425 546.527232,43.3964209 544.558282,48.2682277 C547.7147,49.3907583 551.192977,50.1754032 554.318915,50.5270542 L554.318915,34.7540632 L554.321353,34.7540632 Z M577.31358,71.2481892 C577.101443,75.8909849 575.912758,81.6112596 573.758494,87.35406 C576.679614,88.7043502 579.263023,90.1810345 581.430697,91.6514617 C586.09888,86.2227696 588.911493,79.1346849 589.343076,71.2481892 L577.31358,71.2481892 Z M534.597707,43.1886839 C536.320386,44.2999515 538.4015,45.5588874 540.674024,46.5637836 C542.084597,42.9709357 543.917002,39.4681903 545.874979,36.5360958 C541.654232,37.918923 537.843123,40.1589783 534.597707,43.1886839 L534.597707,43.1886839 Z M558.678647,71.2481892 L558.678647,82.8777042 C562.128883,83.2130868 566.038743,84.200463 569.832784,85.7810158 C571.573752,80.847889 572.647835,75.8884821 572.968476,71.2481892 L558.678647,71.2481892 Z M554.321353,55.1335585 C550.869897,54.7969246 546.951503,53.7920283 543.178189,52.2102241 C541.42381,57.0507453 540.332658,61.8962723 540.001046,66.7305362 L554.318915,66.7305362 L554.318915,55.1335585 L554.321353,55.1335585 Z M572.230882,91.3098222 C570.91906,94.896413 569.196381,98.3040499 567.138431,101.448887 C571.343329,100.091088 575.155657,97.8547873 578.418143,94.7912931 C576.675955,93.5498772 574.489993,92.3209753 572.230882,91.3098222 L572.230882,91.3098222 Z M531.57174,46.3535437 C526.884053,51.7609617 524.090947,58.876578 523.638637,66.7330392 L535.690079,66.7330392 C535.999747,62.0164094 537.19087,56.3837345 539.2476,50.6509457 C536.320386,49.2768783 533.743073,47.808954 531.57174,46.3535437 L531.57174,46.3535437 Z M558.678647,87.4754486 L558.678647,103.259702 C559.422337,103.259702 560.283068,103.133308 561.168182,102.923068 C563.982013,98.9623006 566.473985,94.3532936 568.316144,89.6103836 C565.070728,88.4978648 561.805805,87.8058253 558.678647,87.4754486 L558.678647,87.4754486 Z M554.321353,71.2481892 L540.003483,71.2481892 C540.335095,75.8909849 541.427467,80.847889 543.181846,85.7810158 C546.953941,84.200463 550.872336,83.2130868 554.323792,82.8777042 L554.323792,71.2481892 L554.321353,71.2481892 Z M554.321353,87.4754486 C551.195415,87.8058253 547.929272,88.5003675 544.669226,89.6103836 C546.529672,94.3557964 549.016767,98.9648036 551.834257,102.923068 C552.698645,103.133308 553.576443,103.259702 554.323792,103.259702 L554.323792,87.4754486 L554.321353,87.4754486 Z M535.690079,71.2481892 L523.638637,71.2369264 C524.094604,79.1346849 526.884053,86.2227696 531.57174,91.6514617 C533.743073,90.1810345 536.320386,88.7043502 539.2476,87.35406 C537.10553,81.6112596 535.902214,75.8909849 535.690079,71.2481892 L535.690079,71.2481892 Z M540.761803,91.3098222 C538.500253,92.3209753 536.320386,93.5498772 534.597707,94.7950474 C537.843123,97.8572903 541.656671,100.094843 545.872542,101.452641 C543.804838,98.3040499 542.08094,94.896413 540.761803,91.3098222 L540.761803,91.3098222 Z" id="Fill-19"/>
                <path d="M162.946661,68.2792799 C162.946661,82.5110194 155.099934,92.4082789 142.895452,92.4082789 C138.830752,92.4082789 136.807056,91.5295722 134.904504,90.6626763 L134.904504,47.7902993 C137.073574,45.9124183 139.983359,44.8848985 144.487641,44.8848985 C153.788107,44.8848985 162.946661,54.1798188 162.946661,68.2792799 M175,68.2792799 C175,47.7902993 160.7499,34.2825479 144.634169,34.2825479 C139.412248,34.2825479 137.077036,35.0053549 134.906812,36.3175095 L134.906812,0 L123,0 L123,96.6057561 C127.369292,99.9493291 134.032261,103 142.897759,103 C161.632527,102.997638 175,89.1993464 175,68.2792799" id="Fill-5-Copy"/>
                <path d="M196.693231,103 C192.257543,101.545634 185,96.9366303 185,85.6974989 L185,0 L197.29783,0 L197.29783,84.4082423 C197.29783,90.1835493 201.003059,93.9189972 205,94.915507 L196.693231,103 Z" id="Fill-7-Copy"/>
                <path d="M219.924803,24.8185947 C217.668911,24.8185947 213,19.5862177 213,16.9883078 C213,14.2347355 217.668911,9 219.924803,9 C222.328845,9 227,14.232377 227,16.9883078 C227,19.58268 222.328845,24.8185947 219.924803,24.8185947 L219.924803,24.8185947 Z M214.002244,37.28927 L225.863075,37.28927 L225.863075,103 L214.002244,103 L214.002244,37.28927 Z" id="Fill-9-Copy"/>
            </g>
        </g>
    </g>
</svg>