<svg xmlns="http://www.w3.org/2000/svg" id="Capa_1" data-name="Capa 1" viewBox="0 0 144.67 43.7" data-livestyle-extension="available"><script xmlns="" id="tinyhippos-injected"/><defs><style>.cls-1{fill:#fff;}</style></defs><title>logo-publimetro</title><g id="logo-publimetro-copy-2"><path id="Fill-11" class="cls-1" d="M37.69,40.82V18.51c0-3.09-2.05-5.05-5.8-5.05S26,15.71,26,18.59V40.82H20.14V18.51c0-3.09-2-5.05-5.8-5.05s-5.88,2.24-5.88,5.12V40.82H2.66V9H7.83L8,12c2-2.32,4-3.65,8.27-3.65A9.1,9.1,0,0,1,24,12.55c1.85-2.37,4.81-4.21,9.7-4.21A9.36,9.36,0,0,1,43.49,18V40.82h-5.8Z" transform="translate(-2.66)"/><path id="Fill-13" class="cls-1" d="M65.78,20.47a4.94,4.94,0,0,1-.07,1H52.47c0.71-4.55,4.1-8.19,7.5-8.19,3.55,0,5.81,3.79,5.81,7.14m5.88-.13c0-6-4.32-12-11.89-12C53,8.34,46.17,14.45,46.17,25c0,9.89,6.66,16.55,14.65,16.55a15.19,15.19,0,0,0,8.13-2l1.28-6.25a12.54,12.54,0,0,1-8.57,3.09c-6.36,0-9.33-5.55-9.47-10.11H67.26l4.32-4.42a10.59,10.59,0,0,0,.07-1.54" transform="translate(-2.66)"/><path id="Fill-15" class="cls-1" d="M91.46,13.74H82.69V32.26a3.81,3.81,0,0,0,4.1,3.93,6.72,6.72,0,0,0,3-.56l-1,5.19a6.82,6.82,0,0,1-2.76.42C81,41.24,77,38,77,32.19V13.74H71.58V9H77V3l5.73-3V9h9.62Z" transform="translate(-2.66)"/><path id="Fill-17" class="cls-1" d="M111.56,13.68c-4.6,0-9.7,3.09-9.7,10.95V40.82H96V9h5.52l0.21,4.77c1.49-3.64,5.16-5.19,9.48-5.19l0.92,5.05h-0.57Z" transform="translate(-2.66)"/><path id="Fill-19" class="cls-1" d="M129.58,43.7a17.86,17.86,0,0,1-17.75-18.22,17.76,17.76,0,1,1,35.5,0A17.87,17.87,0,0,1,129.58,43.7h0Zm4.9-33a25.33,25.33,0,0,1,2.39,4.57,20.87,20.87,0,0,0,2.81-1.54,14.14,14.14,0,0,0-5.2-3h0Zm6.59,4.47a27.06,27.06,0,0,1-3.54,2,27.57,27.57,0,0,1,1.64,7.33h5.55a15.3,15.3,0,0,0-3.65-9.29h0ZM131.74,10a4.61,4.61,0,0,0-1.15-.15v7.19a20.61,20.61,0,0,0,4.49-1,28.19,28.19,0,0,0-3.34-6h0Zm4,7.8a18.53,18.53,0,0,1-5.14,1.33v5.28h6.59a24,24,0,0,0-1.44-6.62h0Zm-7.15-8a4.6,4.6,0,0,0-1.15.15,28.66,28.66,0,0,0-3.35,6,21,21,0,0,0,4.5,1V9.87h0Zm10.6,16.63a24.68,24.68,0,0,1-1.64,7.34,25.18,25.18,0,0,1,3.54,2,15.33,15.33,0,0,0,3.65-9.3h-5.55ZM119.49,13.71a20.68,20.68,0,0,0,2.8,1.54,24.48,24.48,0,0,1,2.4-4.57,14,14,0,0,0-5.2,3h0Zm11.1,12.78v5.3a18.49,18.49,0,0,1,5.14,1.32,25.14,25.14,0,0,0,1.45-6.62h-6.59Zm-2-7.34a18.41,18.41,0,0,1-5.14-1.33A24,24,0,0,0,122,24.44h6.6V19.15h0Zm8.26,16.48a22.57,22.57,0,0,1-2.35,4.62,13.74,13.74,0,0,0,5.2-3,17.13,17.13,0,0,0-2.85-1.59h0ZM118.09,15.15a15.32,15.32,0,0,0-3.66,9.29H120a27.46,27.46,0,0,1,1.64-7.33,27.07,27.07,0,0,1-3.54-2h0Zm12.5,18.74v7.19a5.18,5.18,0,0,0,1.15-.15,28.28,28.28,0,0,0,3.3-6.07,20.55,20.55,0,0,0-4.44-1h0Zm-2-7.39H122a25.15,25.15,0,0,0,1.47,6.62,18.37,18.37,0,0,1,5.14-1.32V26.5h0Zm0,7.39a20.77,20.77,0,0,0-4.45,1,28.55,28.55,0,0,0,3.3,6.07,5.1,5.1,0,0,0,1.15.15V33.89h0ZM120,26.5h-5.56a15.36,15.36,0,0,0,3.66,9.3,25.15,25.15,0,0,1,3.54-2A24.86,24.86,0,0,1,120,26.5h0Zm2.34,9.14a16.5,16.5,0,0,0-2.84,1.59,13.64,13.64,0,0,0,5.2,3,22.6,22.6,0,0,1-2.36-4.62h0Z" transform="translate(-2.66)"/></g></svg>