<?xml version="1.0" encoding="utf-8"?>
<!-- Generator: Adobe Illustrator 24.1.0, SVG Export Plug-In . SVG Version: 6.00 Build 0)  -->
<svg version="1.1" id="Capa_1" xmlns="http://www.w3.org/2000/svg" xmlns:xlink="http://www.w3.org/1999/xlink" x="0px" y="0px"
	 viewBox="0 0 209.9 65.9" style="enable-background:new 0 0 209.9 65.9;" xml:space="preserve">
<style type="text/css">
	.st0{fill:#FFFFFF;}
</style>
<g id="Group_6_" transform="translate(1488.000000, 75.500000) rotate(90.000000) translate(-1488.000000, -75.500000) translate(1463.500000, -18.500000)">
	
		<g id="logo-publimetro-copy-2_5_" transform="translate(24.623258, 94.209274) rotate(-90.000000) translate(-24.623258, -94.209274) translate(-68.876742, 70.209274)">
		<path id="Fill-1_5_" class="st0" d="M-1368.8-16.6c0,5-2.7,8.4-6.1,8.4c-2,0-3.7-0.8-4.8-1.9v-13.1c1-1,2.8-1.9,4.8-1.9
			C-1371.5-25-1368.8-21.5-1368.8-16.6 M-1364.5-16.6c0-7.9-5.3-12.2-9.8-12.2c-2.7,0-4.8,0.8-5.9,2.2l-0.2-1.7h-3.5V6.4h4.2V-5.6
			c1,0.7,2.7,1.2,4.8,1.2C-1368.9-4.4-1364.5-9.5-1364.5-16.6"/>
		<path id="Fill-3_3_" class="st0" d="M-1348.9-4.9l-0.2-2.2c-1.4,1.7-3,2.7-6,2.7c-4.4,0-7.5-3-7.5-7.8v-16.1h4.2v15.6
			c0,2.4,1.3,4.5,4.4,4.5c3,0,4.7-2.2,4.7-4.5v-15.6h4.2v23.3H-1348.9z"/>
		<path id="Fill-5_3_" class="st0" d="M-1328-16.7c0,5-2.8,8.6-7.1,8.6c-1.4,0-2.1-0.3-2.8-0.6V-24c0.8-0.7,1.8-1,3.4-1
			C-1331.3-25-1328-21.7-1328-16.7 M-1323.8-16.7c0-7.3-5-12.1-10.7-12.1c-1.8,0-2.7,0.3-3.4,0.7v-12.9l-4.2,0v34.3
			c1.5,1.2,3.9,2.3,7,2.3C-1328.5-4.4-1323.8-9.3-1323.8-16.7"/>
		<path id="Fill-7_3_" class="st0" d="M-1316.9-4.1c-1.5-0.5-4-2.2-4-6.2v-30.7l4.3,0v30.2c0,2.1,1.3,3.4,2.7,3.8L-1316.9-4.1
			L-1316.9-4.1z"/>
		<path id="Fill-9_3_" class="st0" d="M-1309.3-32.7c-0.8,0-2.5-1.9-2.5-2.8c0-1,1.7-2.8,2.5-2.8c0.9,0,2.6,1.9,2.6,2.8
			C-1306.7-34.6-1308.4-32.7-1309.3-32.7z M-1311.4-28.3h4.3v23.3h-4.3V-28.3L-1311.4-28.3z"/>
		<path id="Fill-11_5_" class="st0" d="M-1276.9-21.3c0-2.3-1.5-3.7-4.2-3.7c-2.7,0-4.2,1.6-4.2,3.8v16.3h-4.2v-16.4
			c0-2.3-1.4-3.7-4.2-3.7c-2.7,0-4.3,1.6-4.3,3.8v16.3h-4.2v-23.3h3.7l0.2,2.2c1.4-1.7,2.9-2.7,6-2.7c2.5,0,4.6,1.4,5.6,3.1
			c1.3-1.7,3.5-3.1,7-3.1c4.1,0,7.1,3,7.1,7.1v16.7h-4.2V-21.3z"/>
		<path id="Fill-13_6_" class="st0" d="M-1256.5-19.9c0,0.2,0,0.6-0.1,0.8h-9.6c0.5-3.3,3-6,5.4-6
			C-1258.2-25.1-1256.5-22.3-1256.5-19.9 M-1252.3-20c0-4.4-3.1-8.8-8.6-8.8c-4.9,0-9.8,4.5-9.8,12.2c0,7.3,4.8,12.2,10.6,12.2
			c2.7,0,4.6-0.6,5.9-1.4l0.9-4.6c-1.7,1.5-3.7,2.3-6.2,2.3c-4.6,0-6.8-4.1-6.9-7.4h10.9l3.1-3.2
			C-1252.3-19.1-1252.3-19.7-1252.3-20"/>
		<path id="Fill-15_5_" class="st0" d="M-1238-24.8h-6.4v13.6c0,1.8,1.3,2.9,3,2.9c0.9,0,1.6-0.1,2.2-0.4l-0.7,3.8
			c-0.5,0.2-1.1,0.3-2,0.3c-3.7,0-6.6-2.4-6.6-6.6v-13.6h-3.9v-3.5h3.9v-4.4l4.1-2.2v6.6h7L-1238-24.8L-1238-24.8z"/>
		<path id="Fill-17_5_" class="st0" d="M-1223.4-24.9c-3.3,0-7,2.3-7,8v11.9h-4.2v-23.3h4l0.2,3.5c1.1-2.7,3.7-3.8,6.9-3.8l0.7,3.7
			H-1223.4L-1223.4-24.9z"/>
		<path id="Fill-19_6_" class="st0" d="M-1210.4-2.8c-7.2,0-12.8-5.9-12.8-13.4c0-7.5,5.7-13.4,12.8-13.4c7.2,0,12.8,5.9,12.8,13.4
			C-1197.5-8.7-1203.2-2.8-1210.4-2.8L-1210.4-2.8z M-1206.8-27.1c0.6,1,1.3,2.2,1.7,3.4c0.8-0.3,1.5-0.8,2-1.1
			C-1204.1-25.8-1205.4-26.6-1206.8-27.1L-1206.8-27.1z M-1202.1-23.8c-0.7,0.5-1.6,1-2.6,1.4c0.7,1.9,1.1,3.8,1.2,5.4h4
			C-1199.6-19.6-1200.5-22-1202.1-23.8z M-1208.8-27.5c-0.3-0.1-0.6-0.1-0.8-0.1v5.3c1-0.1,2.2-0.4,3.2-0.8
			C-1207-24.8-1207.9-26.2-1208.8-27.5L-1208.8-27.5z M-1205.9-21.8c-1.3,0.5-2.6,0.9-3.7,1v3.9h4.8
			C-1205-18.6-1205.3-20.2-1205.9-21.8L-1205.9-21.8z M-1211.1-27.7c-0.3,0-0.5,0-0.8,0.1c-0.9,1.3-1.8,2.8-2.4,4.4
			c1.1,0.4,2.2,0.6,3.3,0.8V-27.7z M-1203.4-15.4c-0.1,1.6-0.5,3.5-1.2,5.4c1,0.5,1.8,0.9,2.6,1.4c1.6-1.8,2.5-4.2,2.6-6.8H-1203.4
			L-1203.4-15.4z M-1217.7-24.8c0.6,0.4,1.3,0.8,2,1.1c0.5-1.2,1.1-2.4,1.7-3.4C-1215.3-26.6-1216.6-25.8-1217.7-24.8z
			 M-1209.7-15.4v3.9c1.2,0.1,2.5,0.4,3.7,1c0.6-1.7,0.9-3.3,1.1-4.9H-1209.7L-1209.7-15.4z M-1211.1-20.8c-1.2-0.1-2.5-0.4-3.7-1
			c-0.6,1.6-0.9,3.2-1.1,4.9h4.8V-20.8L-1211.1-20.8z M-1205.1-8.7c-0.4,1.2-1,2.3-1.7,3.4c1.4-0.5,2.7-1.2,3.8-2.2
			C-1203.6-8-1204.4-8.4-1205.1-8.7z M-1218.7-23.8c-1.6,1.8-2.5,4.2-2.6,6.8h4c0.1-1.6,0.5-3.5,1.2-5.4
			C-1217.1-22.8-1218-23.3-1218.7-23.8z M-1209.7-10v5.3c0.3,0,0.5,0,0.8-0.1c0.9-1.3,1.8-2.9,2.4-4.5
			C-1207.5-9.7-1208.6-9.9-1209.7-10z M-1211.1-15.4h-4.8c0.1,1.6,0.5,3.2,1.1,4.9c1.3-0.5,2.6-0.9,3.7-1V-15.4z M-1211.1-10
			c-1,0.1-2.1,0.3-3.2,0.7c0.6,1.6,1.5,3.1,2.4,4.5c0.3,0.1,0.6,0.1,0.8,0.1V-10z M-1217.3-15.4l-4,0c0.2,2.6,1.1,5,2.6,6.8
			c0.7-0.5,1.6-1,2.6-1.4C-1216.8-12-1217.2-13.9-1217.3-15.4L-1217.3-15.4z M-1215.6-8.7c-0.8,0.3-1.5,0.7-2.1,1.2
			c1.1,1,2.4,1.8,3.8,2.2C-1214.6-6.4-1215.2-7.5-1215.6-8.7z"/>
	</g>
</g>
</svg>
