<svg xmlns="http://www.w3.org/2000/svg" xmlns:xlink="http://www.w3.org/1999/xlink" width="300px" height="105px" viewBox="0 0 300 105" version="1.1" data-livestyle-extension="available"><script xmlns="" id="tinyhippos-injected"/>
    <!-- Generator: Sketch 42 (36781) - http://www.bohemiancoding.com/sketch -->
    <title>Artboard</title>
    <desc>Created with Sketch.</desc>
    <defs/>
    <g id="Page-1" stroke="none" stroke-width="1" fill="none" fill-rule="evenodd">
        <g id="Artboard" fill-rule="nonzero">
            <g id="logo_metrord">
                <path d="M71.2262156,81.8498943 L71.2262156,37.167019 C71.2262156,30.9830867 67.1353066,27.05074 59.6828753,27.05074 C52.3572939,27.05074 48.012685,31.5539112 48.012685,37.2938689 L48.012685,81.8498943 L36.3424947,81.8498943 L36.3424947,37.167019 C36.3424947,30.9830867 32.410148,27.05074 24.8308668,27.05074 C17.5052854,27.05074 13.1606765,31.5539112 13.1606765,37.2938689 L13.1606765,81.8498943 L1.61733615,81.8498943 L1.61733615,18.2029598 L11.8921776,18.2029598 L12.3044397,24.1014799 C16.2684989,19.4714588 20.3276956,16.7758985 28.7632135,16.7758985 C35.6448203,16.7758985 41.2896406,20.5496829 44.0803383,25.2114165 C47.7589852,20.422833 53.6257928,16.7758985 63.3298097,16.7758985 C74.7145877,16.7758985 82.7378436,24.9260042 82.7378436,36.1839323 L82.7378436,81.8498943 L71.2262156,81.8498943 Z" id="Shape" fill="#FFFFFF"/>
                <path d="M144.164905,43.8900634 L135.602537,52.7378436 L105.665962,52.7378436 C105.951374,61.8710359 111.849894,73.0021142 124.503171,73.0021142 C131.41649,73.0021142 136.744186,70.9090909 141.501057,66.8181818 L138.995772,79.3446089 C135.317125,81.564482 130.274841,83.2769556 122.82241,83.2769556 C106.934461,83.2769556 93.7103594,69.8942918 93.7103594,50.0739958 C93.7103594,28.9852008 107.346723,16.744186 120.729387,16.744186 C135.792812,16.744186 144.323467,28.858351 144.323467,40.782241 C144.291755,41.6701903 144.291755,43.0972516 144.164905,43.8900634 Z M121.109937,26.7653277 C114.35518,26.7653277 107.632135,34.0591966 106.205074,43.192389 L132.494715,43.192389 C132.653277,42.653277 132.653277,41.6384778 132.653277,41.0993658 C132.653277,34.3446089 128.150106,26.7653277 121.109937,26.7653277 Z" id="Shape" fill="#FFFFFF"/>
                <path d="M189.291755,27.6215645 L171.849894,27.6215645 L171.849894,64.756871 C171.849894,69.640592 175.369979,72.6215645 180,72.6215645 C182.410148,72.6215645 184.376321,72.3361522 186.057082,71.4799154 L184.090909,81.8498943 C182.82241,82.4207188 181.141649,82.7061311 178.636364,82.7061311 C168.488372,82.7061311 160.465116,76.2367865 160.465116,64.5665962 L160.465116,27.589852 L149.778013,27.589852 L149.778013,18.1712474 L160.465116,18.1712474 L160.465116,6.05708245 L171.849894,0.0317124736 L171.849894,18.1712474 L190.972516,18.1712474 L189.291755,27.6215645 Z" id="Shape" fill="#FFFFFF"/>
                <path d="M230.581395,27.4947146 C221.448203,27.4947146 211.331924,33.6469345 211.331924,49.4080338 L211.331924,81.8498943 L199.661734,81.8498943 L199.661734,18.2029598 L210.634249,18.2029598 L211.078224,27.7484144 C213.995772,20.4545455 221.321353,17.3784355 229.915433,17.3784355 L231.754757,27.5264271 C231.310782,27.4947146 231.02537,27.4947146 230.581395,27.4947146 Z" id="Shape" fill="#FFFFFF"/>
                <path d="M265.274841,84.1649049 C245.866808,84.1649049 230.486258,68.8160677 230.486258,49.4080338 C230.486258,30.0317125 245.866808,14.6511628 265.243129,14.6511628 C284.651163,14.6511628 300,30.0317125 300,49.4080338 C300,68.8160677 284.651163,84.1649049 265.274841,84.1649049 Z M274.852008,21.2156448 C276.627907,23.7526427 278.276956,26.7970402 279.545455,29.9365751 C281.606765,29.0486258 283.477801,28.0021142 285.063425,27.0190275 C282.114165,24.3551797 278.689218,22.3890063 274.852008,21.2156448 Z M287.790698,29.7463002 C285.824524,31.0147992 283.477801,32.2832981 280.813953,33.4883721 C282.684989,38.4672304 283.763214,43.3826638 284.048626,47.4735729 L294.926004,47.4735729 C294.545455,40.6236786 292.008457,34.4714588 287.790698,29.7463002 Z M269.460888,19.9471459 C268.668076,19.756871 267.906977,19.6617336 267.209302,19.6617336 L267.209302,33.3615222 C270.063425,33.0443975 273.171247,32.410148 276.02537,31.3953488 C274.281184,27.2093023 272.029598,23.372093 269.460888,19.9471459 Z M277.293869,34.820296 C273.900634,36.1839323 270.348837,37.1035941 267.241015,37.3572939 L267.241015,47.4418605 L280.147992,47.4418605 C279.862579,43.255814 278.879493,39.038055 277.293869,34.820296 Z M263.308668,19.6617336 C262.610994,19.6617336 261.818182,19.756871 261.057082,19.9471459 C258.520085,23.372093 256.268499,27.1775899 254.4926,31.3953488 C257.315011,32.3784355 260.454545,33.0443975 263.308668,33.3615222 L263.308668,19.6617336 Z M284.048626,51.3742072 C283.858351,55.3699789 282.780127,60.3805497 280.813953,65.3911205 C283.477801,66.564482 285.792812,67.832981 287.790698,69.1014799 C292.008457,64.4080338 294.545455,58.255814 294.926004,51.3742072 L284.048626,51.3742072 Z M245.486258,26.987315 C247.071882,27.9704017 248.911205,29.0486258 250.972516,29.9048626 C252.241015,26.7970402 253.921776,23.7526427 255.665962,21.1839323 C251.860465,22.3890063 248.435518,24.3551797 245.486258,26.987315 Z M267.241015,51.3742072 L267.241015,61.4587738 C270.38055,61.744186 273.900634,62.6321353 277.293869,63.9957717 C278.879493,59.7145877 279.862579,55.3699789 280.147992,51.3742072 L267.241015,51.3742072 Z M263.308668,37.3890063 C260.169133,37.1035941 256.649049,36.2156448 253.224101,34.8520085 C251.67019,39.0697674 250.687104,43.2875264 250.369979,47.4735729 L263.308668,47.4735729 L263.308668,37.3890063 Z M279.450317,68.8160677 C278.276956,71.9238901 276.723044,74.8731501 274.852008,77.6321353 C278.657505,76.4587738 282.114165,74.4926004 285.063425,71.8604651 C283.477801,70.7505285 281.511628,69.7040169 279.450317,68.8160677 Z M242.758985,29.7463002 C238.541226,34.4714588 236.004228,40.6236786 235.623679,47.4735729 L246.501057,47.4735729 C246.786469,43.3826638 247.864693,38.4672304 249.735729,33.4883721 C247.071882,32.2832981 244.693446,30.9830867 242.758985,29.7463002 Z M267.241015,65.4862579 L267.241015,79.1860465 C267.938689,79.1860465 268.699789,79.0909091 269.4926,78.9006342 C272.061311,75.4756871 274.281184,71.448203 275.961945,67.3572939 C273.012685,66.3424947 270.063425,65.7716702 267.241015,65.4862579 Z M263.308668,51.3742072 L250.369979,51.3742072 C250.687104,55.3699789 251.638478,59.7145877 253.224101,63.9957717 C256.649049,62.6321353 260.169133,61.744186 263.308668,61.4587738 L263.308668,51.3742072 Z M263.308668,65.4862579 C260.486258,65.7716702 257.536998,66.3742072 254.587738,67.3572939 C256.268499,71.4799154 258.520085,75.4756871 261.057082,78.9006342 C261.818182,79.0909091 262.642706,79.1860465 263.308668,79.1860465 L263.308668,65.4862579 Z M246.469345,51.3742072 L235.591966,51.3742072 C235.972516,58.2241015 238.509514,64.3763214 242.727273,69.1014799 C244.693446,67.832981 247.040169,66.564482 249.672304,65.3911205 C247.737844,60.4122622 246.659619,55.4016913 246.469345,51.3742072 Z M251.067653,68.8160677 C249.006342,69.7040169 247.071882,70.7505285 245.486258,71.8604651 C248.435518,74.4926004 251.860465,76.4587738 255.665962,77.6321353 C253.794926,74.8731501 252.241015,71.9238901 251.067653,68.8160677 Z" id="Shape" fill="#FFFFFF"/>
                <g id="Group" transform="translate(0.000000, 2.219873)" fill="#EFD40A">
                    <path d="M3.04439746,0.126849894 L3.77378436,3.86892178 C3.9640592,4.82029598 4.15433404,5.83509514 4.31289641,6.88160677 L4.34460888,6.88160677 C4.53488372,5.83509514 4.78858351,4.78858351 5.01057082,3.90063425 L5.99365751,0.126849894 L8.24524313,0.126849894 L9.16490486,3.77378436 C9.41860465,4.78858351 9.64059197,5.83509514 9.83086681,6.88160677 L9.86257928,6.88160677 C9.98942918,5.83509514 10.179704,4.78858351 10.4016913,3.74207188 L11.1945032,0.126849894 L13.9852008,0.126849894 L11.1627907,9.29175476 L8.49894292,9.29175476 L7.64270613,6.05708245 C7.42071882,5.16913319 7.26215645,4.34460888 7.07188161,3.20295983 L7.04016913,3.20295983 C6.88160677,4.34460888 6.69133192,5.20084567 6.43763214,6.05708245 L5.5179704,9.29175476 L2.85412262,9.29175476 L0.190274841,0.126849894 L3.04439746,0.126849894 Z" id="Shape"/>
                    <path d="M17.6004228,0.126849894 L18.3298097,3.86892178 C18.5200846,4.82029598 18.7103594,5.83509514 18.8689218,6.88160677 L18.9006342,6.88160677 C19.0909091,5.83509514 19.3446089,4.78858351 19.5665962,3.90063425 L20.5496829,0.126849894 L22.8012685,0.126849894 L23.7209302,3.77378436 C23.97463,4.78858351 24.1966173,5.83509514 24.3868922,6.88160677 L24.4186047,6.88160677 C24.5454545,5.83509514 24.7357294,4.78858351 24.9577167,3.74207188 L25.7505285,0.126849894 L28.5412262,0.126849894 L25.7188161,9.29175476 L23.0549683,9.29175476 L22.1987315,6.05708245 C21.9767442,5.16913319 21.8181818,4.34460888 21.627907,3.20295983 L21.5961945,3.20295983 C21.4376321,4.34460888 21.2473573,5.20084567 20.9936575,6.05708245 L20.0739958,9.29175476 L17.410148,9.29175476 L14.7463002,0.126849894 L17.6004228,0.126849894 Z" id="Shape"/>
                    <path d="M32.1564482,0.126849894 L32.8858351,3.86892178 C33.0761099,4.82029598 33.2663848,5.83509514 33.4249471,6.88160677 L33.4566596,6.88160677 C33.6469345,5.83509514 33.9006342,4.78858351 34.1226216,3.90063425 L35.1057082,0.126849894 L37.3572939,0.126849894 L38.2769556,3.77378436 C38.5306554,4.78858351 38.7526427,5.83509514 38.9429175,6.88160677 L38.97463,6.88160677 C39.1014799,5.83509514 39.2917548,4.78858351 39.5137421,3.74207188 L40.3065539,0.126849894 L43.0972516,0.126849894 L40.2748414,9.29175476 L37.6109937,9.29175476 L36.7547569,6.05708245 C36.5327696,5.16913319 36.3742072,4.34460888 36.1839323,3.20295983 L36.1522199,3.20295983 C35.9936575,4.34460888 35.8033827,5.20084567 35.5496829,6.05708245 L34.6300211,9.29175476 L31.9661734,9.29175476 L29.3023256,0.126849894 L32.1564482,0.126849894 Z" id="Shape"/>
                    <path d="M43.2875264,7.76955603 C43.2875264,6.75475687 43.9852008,6.02536998 44.9682875,6.02536998 C45.9513742,6.02536998 46.6490486,6.7230444 46.6490486,7.76955603 C46.6490486,8.75264271 45.9830867,9.4820296 44.9682875,9.4820296 C43.9852008,9.4820296 43.2875264,8.75264271 43.2875264,7.76955603 Z" id="Shape"/>
                </g>
                <g id="Group" transform="translate(244.186047, 88.794926)" fill="#EFD40A">
                    <path d="M0.158562368,7.83298097 C0.158562368,6.37420719 0.126849894,5.42283298 0.0634249471,4.53488372 L2.72727273,4.53488372 L2.82241015,6.37420719 L2.91754757,6.37420719 C3.42494715,4.9154334 4.66173362,4.31289641 5.61310782,4.31289641 C5.89852008,4.31289641 6.02536998,4.31289641 6.27906977,4.34460888 L6.27906977,7.29386892 C6.05708245,7.26215645 5.80338266,7.1987315 5.45454545,7.1987315 C4.31289641,7.1987315 3.55179704,7.8012685 3.32980973,8.78435518 C3.29809725,8.97463002 3.26638478,9.22832981 3.26638478,9.4820296 L3.26638478,14.5560254 L0.158562368,14.5560254 L0.158562368,7.83298097 Z" id="Shape"/>
                    <path d="M17.4418605,0.0317124736 L17.4418605,11.5433404 C17.4418605,12.653277 17.4735729,13.858351 17.5369979,14.5243129 L14.7780127,14.5243129 L14.6194503,13.0655391 L14.5877378,13.0655391 C13.9534884,14.1754757 12.7484144,14.7463002 11.4799154,14.7463002 C9.10147992,14.7463002 7.23044397,12.7167019 7.23044397,9.64059197 C7.1987315,6.27906977 9.32346723,4.34460888 11.7019027,4.34460888 C12.9386892,4.34460888 13.8900634,4.78858351 14.3340381,5.45454545 L14.3657505,5.45454545 L14.3657505,0.0634249471 L17.4418605,0.0634249471 L17.4418605,0.0317124736 Z M14.3340381,8.78435518 C14.3340381,8.62579281 14.3023256,8.4038055 14.3023256,8.24524313 C14.1120507,7.42071882 13.4460888,6.7230444 12.4947146,6.7230444 C11.0993658,6.7230444 10.3382664,7.99154334 10.3382664,9.54545455 C10.3382664,11.2262156 11.1627907,12.3044397 12.4630021,12.3044397 C13.3509514,12.3044397 14.0803383,11.7019027 14.2706131,10.8139535 C14.3340381,10.5919662 14.3657505,10.3699789 14.3657505,10.0845666 L14.3657505,8.78435518 L14.3340381,8.78435518 Z" id="Shape"/>
                    <path d="M19.5348837,12.8752643 C19.5348837,11.7653277 20.2959831,10.9725159 21.3742072,10.9725159 C22.4524313,10.9725159 23.1818182,11.7336152 23.1818182,12.8752643 C23.1818182,13.9534884 22.4524313,14.7463002 21.3424947,14.7463002 C20.2642706,14.7463002 19.5348837,13.9534884 19.5348837,12.8752643 Z" id="Shape"/>
                    <path d="M34.7251586,0.0317124736 L34.7251586,11.5433404 C34.7251586,12.653277 34.756871,13.858351 34.820296,14.5243129 L32.0613108,14.5243129 L31.9027484,13.0655391 L31.8710359,13.0655391 C31.2367865,14.1754757 30.0317125,14.7463002 28.7632135,14.7463002 C26.384778,14.7463002 24.5137421,12.7167019 24.5137421,9.64059197 C24.4820296,6.27906977 26.6067653,4.34460888 28.9852008,4.34460888 C30.2219873,4.34460888 31.1733615,4.78858351 31.6173362,5.45454545 L31.6490486,5.45454545 L31.6490486,0.0634249471 L34.7251586,0.0634249471 L34.7251586,0.0317124736 Z M31.6173362,8.78435518 C31.6173362,8.62579281 31.5856237,8.4038055 31.5856237,8.24524313 C31.3953488,7.42071882 30.7293869,6.7230444 29.7780127,6.7230444 C28.3826638,6.7230444 27.6215645,7.99154334 27.6215645,9.54545455 C27.6215645,11.2262156 28.4460888,12.3044397 29.7463002,12.3044397 C30.6342495,12.3044397 31.3636364,11.7019027 31.5539112,10.8139535 C31.6173362,10.5919662 31.6490486,10.3699789 31.6490486,10.0845666 L31.6490486,8.78435518 L31.6173362,8.78435518 Z" id="Shape"/>
                    <path d="M47.0930233,9.41860465 C47.0930233,13.0655391 44.4926004,14.7463002 41.8287526,14.7463002 C38.9112051,14.7463002 36.6596195,12.8435518 36.6596195,9.60887949 C36.6596195,6.37420719 38.7843552,4.31289641 41.987315,4.31289641 C45.0317125,4.31289641 47.0930233,6.43763214 47.0930233,9.41860465 Z M39.8625793,9.51374207 C39.8625793,11.2262156 40.5919662,12.5264271 41.8921776,12.5264271 C43.0972516,12.5264271 43.858351,11.3213531 43.858351,9.51374207 C43.858351,8.02325581 43.2875264,6.50105708 41.8921776,6.50105708 C40.4016913,6.53276956 39.8625793,8.05496829 39.8625793,9.51374207 Z" id="Shape"/>
                </g>
            </g>
        </g>
    </g>
</svg>