<?xml version="1.0" encoding="utf-8"?>
<!-- Generator: Adobe Illustrator 24.1.0, SVG Export Plug-In . SVG Version: 6.00 Build 0)  -->
<svg version="1.1" id="Base" xmlns="http://www.w3.org/2000/svg" xmlns:xlink="http://www.w3.org/1999/xlink" x="0px" y="0px"
	 viewBox="0 0 600 285" style="enable-background:new 0 0 600 285;" xml:space="preserve">
<style type="text/css">
	.st0{fill:url(#SVGID_1_);}
	.st1{opacity:0.7;fill:none;stroke:#FFFFFF;stroke-miterlimit:10;}
	.st2{fill:url(#SVGID_2_);}
	.st3{fill:#FFFFFF;}
	.st4{opacity:0.6;}
	.st5{fill:#808080;}
	.st6{enable-background:new    ;}
</style>
<g>
	<linearGradient id="SVGID_1_" gradientUnits="userSpaceOnUse" x1="300" y1="4.0575" x2="300" y2="297.2713">
		<stop  offset="0" style="stop-color:#30A561"/>
		<stop  offset="0.3696" style="stop-color:#239553"/>
		<stop  offset="0.9529" style="stop-color:#087436"/>
	</linearGradient>
	<rect class="st0" width="600" height="285"/>
</g>
<line class="st1" x1="0" y1="100" x2="600" y2="100"/>
<g transform="matrix(1, 0, 0, 1, 0, 0)">
	
		<image style="overflow:visible;opacity:0.3;" width="253" height="217" xlink:href="E840EB3590A0E3E8.png"  transform="matrix(1 0 0 1 37 77.5)">
	</image>
	<g>
		<g>
			<g id="Unión_2-2_9_" transform="translate(6.47 6)">
				
					<linearGradient id="SVGID_2_" gradientUnits="userSpaceOnUse" x1="-387.3536" y1="520.1292" x2="-387.3536" y2="519.1292" gradientTransform="matrix(219.0002 0 0 -182.0005 84984.5469 94752.7734)">
					<stop  offset="0" style="stop-color:#DEDE00"/>
					<stop  offset="1" style="stop-color:#30A561"/>
				</linearGradient>
				<path class="st2" d="M154,271c-7.9,0-15.8-0.7-23.5-2.1c-7.4-1.4-14.7-3.4-21.7-6c-6.8-2.6-13.3-5.7-19.4-9.4
					c-6-3.6-11.6-7.8-16.6-12.4l-0.8-0.7l-1,0.2l-21.4,4.8l6.8-22.7l0.3-0.9l-0.5-0.8c-3.8-6.2-6.7-12.8-8.7-19.6
					c-2-7-3.1-14.2-3.1-21.4c0-6.1,0.7-12.3,2.2-18.3c1.4-5.8,3.6-11.6,6.3-17c2.7-5.4,6.1-10.6,10.1-15.4
					c3.9-4.8,8.4-9.4,13.3-13.5c5-4.1,10.4-7.9,16.2-11.1c5.9-3.3,12.1-6.1,18.6-8.4c6.6-2.3,13.6-4.1,20.6-5.3
					c7.2-1.2,14.7-1.9,22.1-1.9c7.5,0,14.9,0.6,22.1,1.9c7,1.2,14,3,20.6,5.3c6.5,2.3,12.8,5.1,18.6,8.4c5.8,3.3,11.2,7,16.2,11.1
					c4.9,4.1,9.4,8.7,13.3,13.5c3.9,4.9,7.3,10.1,10.1,15.4c2.8,5.5,4.9,11.2,6.3,17c1.5,6,2.2,12.1,2.2,18.3
					c0,6.1-0.7,12.3-2.2,18.3c-1.4,5.8-3.6,11.6-6.3,17c-2.7,5.4-6.1,10.6-10.1,15.4c-3.9,4.8-8.4,9.4-13.3,13.5
					c-5,4.1-10.4,7.9-16.2,11.1c-5.9,3.3-12.1,6.1-18.6,8.4c-6.6,2.3-13.6,4.1-20.6,5.3C168.9,270.4,161.5,271,154,271z"/>
				<path class="st3" d="M154,269c7.3,0,14.7-0.6,21.8-1.8c6.9-1.2,13.8-2.9,20.3-5.2c6.4-2.3,12.5-5,18.3-8.3
					c5.7-3.2,11-6.9,15.9-10.9c4.8-4,9.2-8.5,13.1-13.2c3.8-4.8,7.2-9.8,9.8-15.1c2.7-5.3,4.8-10.9,6.2-16.6
					c1.4-5.8,2.2-11.8,2.2-17.8c0-6-0.7-12-2.2-17.8c-1.4-5.7-3.5-11.3-6.2-16.6c-2.7-5.3-6-10.3-9.8-15.1
					c-3.8-4.7-8.2-9.2-13.1-13.2c-4.9-4.1-10.2-7.7-15.9-10.9c-5.8-3.2-11.9-6-18.3-8.3c-6.5-2.3-13.3-4.1-20.3-5.2
					c-7.1-1.2-14.5-1.8-21.8-1.8c-7.3,0-14.7,0.6-21.8,1.8c-6.9,1.2-13.8,2.9-20.3,5.2c-6.4,2.3-12.5,5-18.3,8.3
					c-5.7,3.2-11,6.9-15.9,10.9c-4.8,4-9.2,8.5-13.1,13.2c-3.8,4.8-7.2,9.8-9.8,15.1c-2.7,5.3-4.8,10.9-6.2,16.6
					c-1.4,5.8-2.2,11.8-2.2,17.8c0,7.1,1,14.1,3,20.9c1.9,6.6,4.8,13.1,8.5,19.2l0.9,1.5l-0.5,1.7l-5.8,19.4l18.1-4l2-0.5l1.5,1.4
					c4.9,4.5,10.4,8.6,16.3,12.2c6,3.6,12.4,6.7,19.1,9.3c6.8,2.6,14,4.6,21.3,5.9C138.5,268.3,146.2,269,154,269 M154,273
					c-32.7,0-62.1-11.7-82.5-30.4l-24.7,5.5l7.8-26c-7.7-12.6-12.1-27-12.1-42.1c0-51.4,49.9-93,111.5-93s111.5,41.6,111.5,93
					C265.5,231.4,215.6,273,154,273z"/>
			</g>
		</g>
	</g>
</g>
<g transform="matrix(1, 0, 0, 1, 0, 0)" class="st4">
	<path id="news-2" class="st5" d="M237.5,132l-48.8,14c-2.3,0.6-3.9,2.6-4,5l-4.7,1.4c-1.5,0.4-2.3,2-1.9,3.4c0,0,0,0,0,0l8.6,30.2
		c1,3.4,4.6,5.4,8,4.4l55-15.8c1.5-0.4,2.3-2,1.9-3.4l0,0l-10.7-37.3C240.5,132.4,238.9,131.5,237.5,132z M192,184.3l-7.9-27.5
		l1.8-0.5l7.9,27.5c0.1,0.5-0.2,1-0.7,1.1C192.6,185.1,192.2,184.8,192,184.3L192,184.3z M245.5,170l-46.2,13.2
		c0-0.3-0.1-0.6-0.2-0.9l-8.9-31l46.1-13.2L245.5,170z M202.2,168l15.1-4.3c0.7-0.2,1.2-1,0.9-1.7l-3.1-10.6c-0.2-0.7-1-1.2-1.7-0.9
		l-15.1,4.3c-0.7,0.2-1.2,1-0.9,1.7h0l3.1,10.6C200.7,167.8,201.5,168.2,202.2,168L202.2,168z M202.8,158.2l8.9-2.5l1.3,4.4
		l-8.9,2.5L202.8,158.2z M202.8,175l-0.8-2.7c-0.2-0.7,0.2-1.5,0.9-1.7l0,0l15.1-4.3c0.7-0.2,1.5,0.2,1.7,0.9l0.8,2.7
		c0.2,0.7-0.2,1.5-0.9,1.7l-15.1,4.3C203.7,176.2,203,175.8,202.8,175z M224.1,168.9l-0.8-2.7c-0.2-0.7,0.2-1.5,0.9-1.7l11.5-3.3
		c0.7-0.2,1.5,0.2,1.7,0.9l0.8,2.7c0.2,0.7-0.2,1.5-0.9,1.7l-11.5,3.3C225,170.1,224.3,169.6,224.1,168.9L224.1,168.9z M219.5,152.9
		l-0.8-2.7c-0.2-0.7,0.2-1.5,0.9-1.7l11.5-3.3c0.7-0.2,1.5,0.2,1.7,0.9l0.8,2.7c0.2,0.7-0.2,1.5-0.9,1.7l-11.5,3.3
		C220.5,154.1,219.7,153.7,219.5,152.9L219.5,152.9z M221.8,160.9l-0.8-2.7c-0.2-0.7,0.2-1.5,0.9-1.7l11.5-3.3
		c0.7-0.2,1.5,0.2,1.7,0.9l0.8,2.7c0.2,0.7-0.2,1.5-0.9,1.7l-11.5,3.3C222.7,162.1,222,161.7,221.8,160.9L221.8,160.9z"/>
</g>
<g>
	<path class="st5" d="M177.9,212.1h3c0.4,0,0.8,0,1.3,0.1s0.9,0.1,1.4,0.2s0.9,0.3,1.3,0.6s0.8,0.6,1.1,1.1s0.6,1,0.8,1.7
		s0.3,1.5,0.3,2.5v0.7c0,1.1-0.1,2-0.3,2.7s-0.4,1.4-0.7,1.9s-0.7,0.9-1.1,1.2s-0.8,0.5-1.3,0.7s-0.9,0.3-1.3,0.3s-0.9,0.1-1.2,0.1
		h-0.3v6.1h-3V212.1z M181.1,223.8c0.5,0,1-0.1,1.4-0.2s0.7-0.4,0.9-0.8s0.4-0.8,0.5-1.3s0.1-1.2,0.1-1.9v-1.8c0-0.6,0-1.1-0.1-1.5
		s-0.2-0.8-0.5-1.1s-0.5-0.5-0.9-0.6s-0.8-0.2-1.4-0.2h-0.2v9.5H181.1z"/>
	<g>
		<path class="st5" d="M136.2,212.1h2.5l4.9,13.4h0.1c0-0.3-0.1-0.7-0.1-1s-0.1-0.8-0.1-1.3s-0.1-1-0.1-1.7s0-1.3,0-2.1v-7.3h2.7v20
			h-2.5l-4.8-13h-0.1c0,0.4,0.1,0.7,0.1,1.1s0.1,0.9,0.1,1.4s0.1,1.2,0.1,1.9s0,1.6,0,2.6v5.9h-2.7V212.1z"/>
		<path class="st5" d="M154.5,212.1h3v20h-3V212.1z"/>
		<path class="st5" d="M161,212.1h4l1.9,7.7c0.2,0.9,0.4,1.7,0.5,2.5s0.2,1.5,0.3,2.2h0.1c0.1-0.7,0.2-1.4,0.3-2.2s0.3-1.6,0.5-2.5
			l2-7.7h3.9v20h-2.8v-6.6c0-1,0-2,0-2.9s0-1.8,0.1-2.6s0.1-1.5,0.1-2.1s0.1-1.1,0.1-1.4h-0.2l-3,13.1h-1.9l-3-13.1h-0.2
			c0,0.4,0.1,0.8,0.1,1.4s0.1,1.3,0.1,2.1s0.1,1.6,0.1,2.6s0,1.9,0,2.9v6.6H161V212.1z"/>
		<g>
			<path class="st5" d="M77.6,212.1H85v2.4h-4.4v6H84v2.4h-3.4v6.9h4.5v2.4h-7.5V212.1z"/>
			<path class="st5" d="M87.3,212.1h3.2c0.5,0,1,0,1.5,0s1,0.1,1.5,0.3s0.9,0.4,1.4,0.7s0.8,0.7,1.1,1.2s0.6,1.2,0.8,2
				s0.3,1.8,0.3,2.9v5.8c0,1.2-0.1,2.1-0.3,2.9s-0.5,1.5-0.8,2s-0.7,0.9-1.1,1.2s-0.9,0.5-1.4,0.7s-1,0.2-1.5,0.3s-1,0-1.5,0h-3.2
				V212.1z M91.1,230c0.5,0,1-0.1,1.4-0.2s0.6-0.4,0.8-0.7s0.3-0.8,0.4-1.5s0.1-1.4,0.1-2.3v-6.2c0-0.9,0-1.7-0.1-2.3
				s-0.2-1.1-0.4-1.5s-0.5-0.6-0.8-0.7s-0.8-0.2-1.4-0.2h-0.8V230H91.1z"/>
			<path class="st5" d="M99.8,212.1h3v20h-3V212.1z"/>
			<path class="st5" d="M110.5,232.3c-0.3,0-0.7,0-1-0.1s-0.7-0.2-1.1-0.3s-0.7-0.4-1-0.7s-0.6-0.7-0.9-1.2s-0.5-1.1-0.6-1.8
				s-0.2-1.6-0.2-2.6v-7.1c0-1,0.1-1.9,0.2-2.6s0.4-1.3,0.6-1.8s0.6-0.9,0.9-1.2s0.7-0.5,1-0.7s0.7-0.3,1.1-0.3s0.7-0.1,1-0.1
				c0.8,0,1.5,0.1,2,0.3s1,0.5,1.3,0.9s0.6,0.8,0.7,1.4s0.2,1.1,0.2,1.6c0,0.4,0,0.8-0.1,1.2s-0.1,0.8-0.2,1.2H112v-1
				c0-1.1-0.1-1.9-0.4-2.5s-0.6-0.8-1.1-0.8c-0.3,0-0.5,0.1-0.7,0.2s-0.4,0.3-0.5,0.6s-0.2,0.6-0.3,1s-0.1,1-0.1,1.6v9.1
				c0,0.6,0,1.1,0.1,1.6s0.2,0.7,0.3,1s0.3,0.4,0.5,0.5s0.5,0.2,0.8,0.2c0.2,0,0.4,0,0.6-0.1s0.3-0.2,0.5-0.4s0.2-0.4,0.3-0.7
				s0.1-0.6,0.1-1v-2h2.8v1.9c0,1.6-0.4,2.8-1.1,3.6S111.9,232.3,110.5,232.3z"/>
			<path class="st5" d="M117.2,212.1h3v20h-3V212.1z"/>
			<path class="st5" d="M128.2,232.3c-0.3,0-0.7,0-1-0.1s-0.7-0.2-1.1-0.3s-0.7-0.4-1.1-0.7s-0.6-0.7-0.9-1.2s-0.5-1.1-0.6-1.8
				s-0.2-1.6-0.2-2.6v-7.1c0-1,0.1-1.9,0.2-2.6s0.4-1.3,0.6-1.8s0.6-0.9,0.9-1.2s0.7-0.5,1.1-0.7s0.7-0.3,1.1-0.3s0.7-0.1,1-0.1
				c0.3,0,0.6,0,1,0.1s0.7,0.1,1.1,0.3s0.7,0.4,1.1,0.6s0.6,0.7,0.9,1.2s0.5,1.1,0.6,1.8s0.2,1.6,0.2,2.6v7.1c0,1-0.1,1.8-0.2,2.6
				s-0.4,1.3-0.6,1.8s-0.6,0.9-0.9,1.2s-0.7,0.5-1.1,0.7s-0.7,0.3-1.1,0.3S128.5,232.3,128.2,232.3z M128.2,230
				c0.3,0,0.6-0.1,0.8-0.2s0.4-0.3,0.6-0.5s0.3-0.6,0.3-1s0.1-0.9,0.1-1.6v-9.1c0-0.6,0-1.2-0.1-1.6s-0.2-0.8-0.3-1
				s-0.3-0.4-0.6-0.6s-0.5-0.2-0.8-0.2c-0.3,0-0.6,0.1-0.8,0.2s-0.4,0.3-0.6,0.6s-0.3,0.6-0.3,1s-0.1,1-0.1,1.6v9.1
				c0,0.6,0,1.1,0.1,1.6s0.2,0.7,0.3,1s0.3,0.4,0.6,0.5S127.9,230,128.2,230z M126.9,210.5l3.8-2.5l1.5,2l-4,1.9L126.9,210.5z"/>
			<path class="st5" d="M189.4,212.1h3.3c0.4,0,0.8,0,1.2,0s0.9,0.1,1.3,0.2s0.9,0.3,1.3,0.5s0.8,0.6,1.1,1s0.6,1,0.8,1.6
				s0.3,1.4,0.3,2.3v0.5c0,1.5-0.2,2.8-0.7,3.7s-1.1,1.6-1.9,2.1l3.2,8h-3.2l-2.7-7.5h-1.1v7.5h-3V212.1z M192.8,222.5
				c0.5,0,1-0.1,1.3-0.2s0.7-0.3,0.9-0.6s0.4-0.6,0.5-1.1s0.2-1,0.2-1.7v-1.6c0-0.5,0-1-0.1-1.3s-0.3-0.7-0.5-0.9s-0.5-0.4-0.9-0.5
				s-0.8-0.2-1.4-0.2h-0.5v8.1H192.8z"/>
			<path class="st5" d="M201.7,212.1h7.4v2.4h-4.4v6h3.4v2.4h-3.4v6.9h4.5v2.4h-7.5V212.1z"/>
			<path class="st5" d="M210.6,228.1c0-0.4,0-0.8,0.1-1.2s0.1-0.8,0.2-1.2h2.4v1c0,0.5,0,1,0.1,1.4s0.2,0.8,0.3,1s0.4,0.5,0.6,0.6
				s0.6,0.2,0.9,0.2c0.6,0,1-0.2,1.3-0.5s0.5-0.8,0.5-1.4c0-0.3,0-0.6-0.1-0.9s-0.1-0.5-0.2-0.8s-0.2-0.5-0.4-0.8s-0.4-0.6-0.7-1
				l-3.2-3.8c-0.6-0.7-1-1.4-1.3-2.2s-0.5-1.5-0.5-2.3c0-0.7,0.1-1.3,0.3-1.8s0.5-1,0.9-1.4s0.9-0.7,1.4-0.9s1.2-0.3,2-0.3
				c0.9,0,1.6,0.1,2.2,0.4s1.1,0.6,1.4,1s0.6,0.9,0.7,1.4s0.2,1,0.2,1.5c0,0.4,0,0.8-0.1,1.2s-0.1,0.8-0.2,1.2h-2.3v-0.9
				c0-1.1-0.2-1.9-0.5-2.4s-0.8-0.8-1.5-0.8c-0.6,0-1,0.2-1.3,0.5s-0.4,0.7-0.4,1.3c0,0.3,0,0.5,0.1,0.8s0.1,0.4,0.2,0.6
				s0.2,0.4,0.3,0.6s0.2,0.4,0.4,0.6l3.5,4.3c0.6,0.8,1.1,1.6,1.5,2.4s0.5,1.6,0.5,2.4c0,0.7-0.1,1.4-0.3,1.9s-0.5,1.1-1,1.5
				s-0.9,0.7-1.5,0.9s-1.2,0.3-2,0.3c-0.9,0-1.7-0.1-2.3-0.4s-1.1-0.6-1.4-1s-0.6-0.9-0.8-1.4S210.6,228.6,210.6,228.1z"/>
			<path class="st5" d="M224.8,212.1h3.5l3.7,20h-3.1l-0.6-3.6h-3.7l-0.5,3.6h-3.1L224.8,212.1z M228,226.3l-1.4-10h-0.1l-1.4,10
				H228z"/>
			<g class="st6">
				<path class="st5" d="M78,175.9h3l5.9,16.2h0.1c0-0.4-0.1-0.8-0.1-1.3s-0.1-1-0.1-1.6s-0.1-1.3-0.1-2c0-0.7,0-1.6,0-2.5v-8.8h3.3
					v24.2h-3l-5.8-15.8h-0.1c0,0.4,0.1,0.9,0.1,1.4c0,0.5,0.1,1.1,0.1,1.7s0.1,1.5,0.1,2.3c0,0.9,0,2,0,3.2v7.1H78V175.9z"/>
				<path class="st5" d="M93.8,175.9h3.7v17.7c0,0.8,0,1.4,0.1,1.9c0.1,0.5,0.2,0.9,0.4,1.2c0.2,0.3,0.4,0.5,0.6,0.6
					c0.3,0.1,0.6,0.2,0.9,0.2s0.7-0.1,0.9-0.2c0.3-0.1,0.5-0.3,0.7-0.6c0.2-0.3,0.3-0.7,0.4-1.2c0.1-0.5,0.1-1.1,0.1-1.9v-17.7h3.7
					v16.8c0,1.2-0.1,2.2-0.3,3c-0.2,0.8-0.4,1.5-0.8,2.1s-0.7,1-1.1,1.3c-0.4,0.3-0.8,0.6-1.2,0.8c-0.4,0.2-0.9,0.3-1.3,0.3
					s-0.8,0.1-1.2,0.1s-0.7,0-1.2-0.1c-0.4,0-0.8-0.2-1.3-0.3s-0.8-0.4-1.2-0.8c-0.4-0.3-0.8-0.8-1.1-1.3s-0.6-1.3-0.7-2.1
					c-0.2-0.8-0.3-1.8-0.3-3V175.9z"/>
				<path class="st5" d="M109.4,175.9h9v2.9h-5.3v7.2h4.1v2.9h-4.1v8.3h5.4v2.9h-9.1V175.9z"/>
				<path class="st5" d="M120.2,195.2c0-0.5,0-1,0.1-1.4c0.1-0.4,0.2-0.9,0.3-1.4h2.8v1.2c0,0.7,0,1.2,0.1,1.7
					c0.1,0.5,0.2,0.9,0.4,1.3c0.2,0.3,0.4,0.6,0.7,0.8c0.3,0.2,0.7,0.3,1.1,0.3c0.7,0,1.2-0.2,1.6-0.6c0.4-0.4,0.6-0.9,0.6-1.7
					c0-0.4,0-0.7-0.1-1c-0.1-0.3-0.1-0.6-0.3-0.9c-0.1-0.3-0.3-0.6-0.5-1s-0.5-0.7-0.8-1.2l-3.8-4.5c-0.7-0.9-1.2-1.7-1.6-2.6
					s-0.6-1.8-0.6-2.8c0-0.8,0.1-1.5,0.4-2.2c0.2-0.7,0.6-1.2,1.1-1.7s1.1-0.9,1.7-1.1c0.7-0.3,1.5-0.4,2.4-0.4c1.1,0,2,0.2,2.7,0.5
					c0.7,0.3,1.3,0.7,1.7,1.2c0.4,0.5,0.7,1,0.9,1.7c0.2,0.6,0.3,1.2,0.3,1.8c0,0.5,0,1-0.1,1.4c-0.1,0.4-0.2,0.9-0.3,1.5h-2.8v-1.1
					c0-1.3-0.2-2.3-0.6-3c-0.4-0.7-1-1-1.8-1c-0.7,0-1.2,0.2-1.5,0.6c-0.3,0.4-0.5,0.9-0.5,1.5c0,0.3,0,0.6,0.1,0.9
					c0.1,0.3,0.1,0.5,0.2,0.8c0.1,0.2,0.2,0.5,0.4,0.7s0.3,0.4,0.5,0.7l4.3,5.2c0.8,1,1.4,2,1.8,2.9s0.6,1.9,0.6,3
					c0,0.9-0.1,1.6-0.4,2.3c-0.3,0.7-0.7,1.3-1.2,1.8s-1.1,0.9-1.8,1.1c-0.7,0.3-1.5,0.4-2.4,0.4c-1.1,0-2-0.1-2.7-0.4
					c-0.7-0.3-1.3-0.7-1.7-1.2c-0.4-0.5-0.7-1-0.9-1.6C120.3,196.5,120.2,195.9,120.2,195.2z"/>
				<path class="st5" d="M136.9,178.8H133v-2.9h11.4v2.9h-3.9v21.3h-3.7V178.8z"/>
				<path class="st5" d="M147,175.9h4c0.5,0,1,0,1.5,0.1c0.5,0,1.1,0.1,1.6,0.3c0.5,0.1,1.1,0.4,1.6,0.7c0.5,0.3,1,0.7,1.3,1.2
					c0.4,0.5,0.7,1.1,0.9,1.9s0.4,1.7,0.4,2.8v0.6c0,1.8-0.3,3.3-0.8,4.5s-1.3,2-2.3,2.5l3.9,9.7h-3.9l-3.2-9h-1.4v9H147V175.9z
					 M151.1,188.4c0.6,0,1.2-0.1,1.6-0.2c0.4-0.1,0.8-0.4,1.1-0.7s0.5-0.8,0.6-1.3c0.1-0.6,0.2-1.2,0.2-2v-1.9
					c0-0.6-0.1-1.2-0.2-1.6s-0.3-0.8-0.6-1.1c-0.3-0.3-0.6-0.5-1.1-0.7s-1-0.2-1.7-0.2h-0.6v9.8H151.1z"/>
				<path class="st5" d="M164.5,175.9h4.2l4.5,24.2h-3.7l-0.7-4.3h-4.4l-0.6,4.3H160L164.5,175.9z M168.4,193l-1.7-12.1h-0.2
					l-1.7,12.1H168.4z"/>
			</g>
			<g transform="matrix(1, 0, 0, 1, 0, 0)">
				<g class="st6">
					<path class="st5" d="M77.5,131.3h5.1c0.6,0,1.2,0,1.9,0.1c0.7,0,1.4,0.2,2.1,0.4c0.7,0.2,1.4,0.5,2,0.8
						c0.6,0.4,1.2,0.9,1.7,1.5c0.5,0.7,0.9,1.5,1.2,2.4c0.3,1,0.5,2.2,0.5,3.6v0.8c0,2.3-0.3,4.3-1,5.7c-0.7,1.5-1.7,2.5-3,3.2
						l5,12.3h-5l-4.1-11.5h-1.8v11.5h-4.6V131.3z M82.8,147.2c0.8,0,1.5-0.1,2.1-0.3c0.6-0.2,1-0.5,1.4-0.9c0.3-0.4,0.6-1,0.8-1.7
						c0.2-0.7,0.2-1.6,0.2-2.6v-2.4c0-0.8-0.1-1.5-0.2-2.1s-0.4-1.1-0.7-1.4c-0.3-0.4-0.8-0.7-1.4-0.8c-0.6-0.2-1.3-0.3-2.1-0.3
						h-0.7v12.5H82.8z"/>
					<path class="st5" d="M96.5,131.3h11.4v3.7h-6.8v9.2h5.2v3.7h-5.2v10.6h6.9v3.7H96.5V131.3z"/>
					<path class="st5" d="M109.2,131.3h4.8l3.4,24.4h0.2l3.4-24.4h4.8l-5.6,30.9h-5.3L109.2,131.3z"/>
					<path class="st5" d="M128.7,131.3h4.7v30.9h-4.7V131.3z"/>
					<path class="st5" d="M137.5,155.9c0-0.7,0-1.3,0.1-1.8c0.1-0.6,0.2-1.2,0.4-1.8h3.6v1.5c0,0.8,0.1,1.6,0.2,2.2
						c0.1,0.6,0.3,1.2,0.5,1.6c0.2,0.4,0.5,0.8,0.9,1c0.4,0.2,0.9,0.3,1.4,0.3c0.9,0,1.6-0.2,2-0.7c0.5-0.5,0.7-1.2,0.7-2.1
						c0-0.5,0-0.9-0.1-1.3c-0.1-0.4-0.2-0.8-0.3-1.2c-0.2-0.4-0.4-0.8-0.7-1.3c-0.3-0.4-0.6-0.9-1.1-1.5l-4.9-5.8
						c-0.9-1.1-1.5-2.2-2-3.4s-0.7-2.3-0.7-3.6c0-1,0.2-2,0.5-2.8c0.3-0.9,0.8-1.6,1.4-2.2c0.6-0.6,1.3-1.1,2.2-1.4
						c0.9-0.3,1.9-0.5,3-0.5c1.4,0,2.5,0.2,3.4,0.6c0.9,0.4,1.6,0.9,2.2,1.5c0.5,0.6,0.9,1.3,1.1,2.1c0.2,0.8,0.3,1.6,0.3,2.3
						c0,0.7-0.1,1.3-0.2,1.8c-0.1,0.6-0.2,1.2-0.4,1.9h-3.6v-1.5c0-1.6-0.2-2.9-0.7-3.8s-1.2-1.3-2.3-1.3c-0.9,0-1.5,0.2-2,0.7
						c-0.4,0.5-0.7,1.1-0.7,2c0,0.4,0,0.8,0.1,1.2c0.1,0.3,0.2,0.7,0.3,1c0.1,0.3,0.3,0.6,0.5,0.9s0.4,0.6,0.6,0.9l5.4,6.6
						c1,1.3,1.7,2.5,2.3,3.7c0.5,1.2,0.8,2.4,0.8,3.8c0,1.1-0.2,2.1-0.5,3c-0.3,0.9-0.8,1.6-1.5,2.2c-0.6,0.6-1.4,1.1-2.3,1.4
						s-1.9,0.5-3.1,0.5c-1.4,0-2.6-0.2-3.5-0.6c-0.9-0.4-1.7-0.9-2.2-1.5c-0.5-0.6-0.9-1.3-1.2-2.1
						C137.6,157.5,137.5,156.7,137.5,155.9z"/>
					<path class="st5" d="M159.3,131.3h5.4l5.7,30.9h-4.7l-0.8-5.5h-5.6l-0.8,5.5h-4.8L159.3,131.3z M164.3,153.1l-2.2-15.4h-0.2
						l-2.2,15.4H164.3z"/>
				</g>
			</g>
		</g>
		<g>
			<g class="st6">
				<path class="st3" d="M77.1,211.1h7.4v2.4h-4.4v6h3.4v2.4h-3.4v6.9h4.5v2.4h-7.5V211.1z"/>
				<path class="st3" d="M86.8,211.1H90c0.5,0,1,0,1.5,0s1,0.1,1.5,0.3s0.9,0.4,1.4,0.7s0.8,0.7,1.1,1.2s0.6,1.2,0.8,2
					s0.3,1.8,0.3,2.9v5.8c0,1.2-0.1,2.1-0.3,2.9s-0.5,1.5-0.8,2s-0.7,0.9-1.1,1.2s-0.9,0.5-1.4,0.7s-1,0.2-1.5,0.3s-1,0-1.5,0h-3.2
					V211.1z M90.6,229c0.5,0,1-0.1,1.4-0.2s0.6-0.4,0.8-0.7s0.3-0.8,0.4-1.5s0.1-1.4,0.1-2.3v-6.2c0-0.9,0-1.7-0.1-2.3
					s-0.2-1.1-0.4-1.5s-0.5-0.6-0.8-0.7s-0.8-0.2-1.4-0.2h-0.8V229H90.6z"/>
				<path class="st3" d="M99.2,211.1h3v20h-3V211.1z"/>
				<path class="st3" d="M110,231.3c-0.3,0-0.7,0-1-0.1s-0.7-0.2-1.1-0.3s-0.7-0.4-1-0.7s-0.6-0.7-0.9-1.2s-0.5-1.1-0.6-1.8
					s-0.2-1.6-0.2-2.6v-7.1c0-1,0.1-1.9,0.2-2.6s0.4-1.3,0.6-1.8s0.6-0.9,0.9-1.2s0.7-0.5,1-0.7s0.7-0.3,1.1-0.3s0.7-0.1,1-0.1
					c0.8,0,1.5,0.1,2,0.3s1,0.5,1.3,0.9s0.6,0.8,0.7,1.4s0.2,1.1,0.2,1.6c0,0.4,0,0.8-0.1,1.2s-0.1,0.8-0.2,1.2h-2.5v-1
					c0-1.1-0.1-1.9-0.4-2.5s-0.6-0.8-1.1-0.8c-0.3,0-0.5,0.1-0.7,0.2s-0.4,0.3-0.5,0.6s-0.2,0.6-0.3,1s-0.1,1-0.1,1.6v9.1
					c0,0.6,0,1.1,0.1,1.6s0.2,0.7,0.3,1s0.3,0.4,0.5,0.5s0.5,0.2,0.8,0.2c0.2,0,0.4,0,0.6-0.1s0.3-0.2,0.5-0.4s0.2-0.4,0.3-0.7
					s0.1-0.6,0.1-1v-2h2.8v1.9c0,1.6-0.4,2.8-1.1,3.6S111.4,231.3,110,231.3z"/>
				<path class="st3" d="M116.7,211.1h3v20h-3V211.1z"/>
				<path class="st3" d="M127.7,231.3c-0.3,0-0.7,0-1-0.1s-0.7-0.2-1.1-0.3s-0.7-0.4-1.1-0.7s-0.6-0.7-0.9-1.2s-0.5-1.1-0.6-1.8
					s-0.2-1.6-0.2-2.6v-7.1c0-1,0.1-1.9,0.2-2.6s0.4-1.3,0.6-1.8s0.6-0.9,0.9-1.2s0.7-0.5,1.1-0.7s0.7-0.3,1.1-0.3s0.7-0.1,1-0.1
					c0.3,0,0.6,0,1,0.1s0.7,0.1,1.1,0.3s0.7,0.4,1.1,0.6s0.6,0.7,0.9,1.2s0.5,1.1,0.6,1.8s0.2,1.6,0.2,2.6v7.1c0,1-0.1,1.8-0.2,2.6
					s-0.4,1.3-0.6,1.8s-0.6,0.9-0.9,1.2s-0.7,0.5-1.1,0.7s-0.7,0.3-1.1,0.3S128,231.3,127.7,231.3z M127.7,229
					c0.3,0,0.6-0.1,0.8-0.2s0.4-0.3,0.6-0.5s0.3-0.6,0.3-1s0.1-0.9,0.1-1.6v-9.1c0-0.6,0-1.2-0.1-1.6s-0.2-0.8-0.3-1
					s-0.3-0.4-0.6-0.6s-0.5-0.2-0.8-0.2c-0.3,0-0.6,0.1-0.8,0.2s-0.4,0.3-0.6,0.6s-0.3,0.6-0.3,1s-0.1,1-0.1,1.6v9.1
					c0,0.6,0,1.1,0.1,1.6s0.2,0.7,0.3,1s0.3,0.4,0.6,0.5S127.4,229,127.7,229z M126.4,209.4l3.8-2.5l1.5,2l-4,1.9L126.4,209.4z"/>
				<path class="st3" d="M135.7,211.1h2.5l4.9,13.4h0.1c0-0.3-0.1-0.7-0.1-1s-0.1-0.8-0.1-1.3s-0.1-1-0.1-1.7s0-1.3,0-2.1v-7.3h2.7
					v20H143l-4.8-13H138c0,0.4,0.1,0.7,0.1,1.1s0.1,0.9,0.1,1.4s0.1,1.2,0.1,1.9s0,1.6,0,2.6v5.9h-2.7V211.1z"/>
				<path class="st3" d="M154,211.1h3v20h-3V211.1z"/>
				<path class="st3" d="M160.5,211.1h4l1.9,7.7c0.2,0.9,0.4,1.7,0.5,2.5s0.2,1.5,0.3,2.2h0.1c0.1-0.7,0.2-1.4,0.3-2.2
					s0.3-1.6,0.5-2.5l2-7.7h3.9v20h-2.8v-6.6c0-1,0-2,0-2.9s0-1.8,0.1-2.6s0.1-1.5,0.1-2.1s0.1-1.1,0.1-1.4h-0.2l-3,13.1h-1.9
					l-3-13.1H163c0,0.4,0.1,0.8,0.1,1.4s0.1,1.3,0.1,2.1s0.1,1.6,0.1,2.6s0,1.9,0,2.9v6.6h-2.8V211.1z"/>
				<path class="st3" d="M177.4,211.1h3c0.4,0,0.8,0,1.3,0.1s0.9,0.1,1.4,0.2s0.9,0.3,1.3,0.6s0.8,0.6,1.1,1.1s0.6,1,0.8,1.7
					s0.3,1.5,0.3,2.5v0.7c0,1.1-0.1,2-0.3,2.7s-0.4,1.4-0.7,1.9s-0.7,0.9-1.1,1.2s-0.8,0.5-1.3,0.7s-0.9,0.3-1.3,0.3
					s-0.9,0.1-1.2,0.1h-0.3v6.1h-3V211.1z M180.5,222.8c0.5,0,1-0.1,1.4-0.2s0.7-0.4,0.9-0.8s0.4-0.8,0.5-1.3s0.1-1.2,0.1-1.9v-1.8
					c0-0.6,0-1.1-0.1-1.5s-0.2-0.8-0.5-1.1s-0.5-0.5-0.9-0.6s-0.8-0.2-1.4-0.2h-0.2v9.5H180.5z"/>
				<path class="st3" d="M188.9,211.1h3.3c0.4,0,0.8,0,1.2,0s0.9,0.1,1.3,0.2s0.9,0.3,1.3,0.5s0.8,0.6,1.1,1s0.6,1,0.8,1.6
					s0.3,1.4,0.3,2.3v0.5c0,1.5-0.2,2.8-0.7,3.7s-1.1,1.6-1.9,2.1l3.2,8h-3.2l-2.7-7.5h-1.1v7.5h-3V211.1z M192.3,221.4
					c0.5,0,1-0.1,1.3-0.2s0.7-0.3,0.9-0.6s0.4-0.6,0.5-1.1s0.2-1,0.2-1.7v-1.6c0-0.5,0-1-0.1-1.3s-0.3-0.7-0.5-0.9s-0.5-0.4-0.9-0.5
					s-0.8-0.2-1.4-0.2h-0.5v8.1H192.3z"/>
				<path class="st3" d="M201.1,211.1h7.4v2.4h-4.4v6h3.4v2.4h-3.4v6.9h4.5v2.4h-7.5V211.1z"/>
				<path class="st3" d="M210.1,227.1c0-0.4,0-0.8,0.1-1.2s0.1-0.8,0.2-1.2h2.4v1c0,0.5,0,1,0.1,1.4s0.2,0.8,0.3,1s0.4,0.5,0.6,0.6
					s0.6,0.2,0.9,0.2c0.6,0,1-0.2,1.3-0.5s0.5-0.8,0.5-1.4c0-0.3,0-0.6-0.1-0.9s-0.1-0.5-0.2-0.8s-0.2-0.5-0.4-0.8s-0.4-0.6-0.7-1
					l-3.2-3.8c-0.6-0.7-1-1.4-1.3-2.2s-0.5-1.5-0.5-2.3c0-0.7,0.1-1.3,0.3-1.8s0.5-1,0.9-1.4s0.9-0.7,1.4-0.9s1.2-0.3,2-0.3
					c0.9,0,1.6,0.1,2.2,0.4s1.1,0.6,1.4,1s0.6,0.9,0.7,1.4s0.2,1,0.2,1.5c0,0.4,0,0.8-0.1,1.2s-0.1,0.8-0.2,1.2h-2.3v-0.9
					c0-1.1-0.2-1.9-0.5-2.4s-0.8-0.8-1.5-0.8c-0.6,0-1,0.2-1.3,0.5s-0.4,0.7-0.4,1.3c0,0.3,0,0.5,0.1,0.8s0.1,0.4,0.2,0.6
					s0.2,0.4,0.3,0.6s0.2,0.4,0.4,0.6l3.5,4.3c0.6,0.8,1.1,1.6,1.5,2.4s0.5,1.6,0.5,2.4c0,0.7-0.1,1.4-0.3,1.9s-0.5,1.1-1,1.5
					s-0.9,0.7-1.5,0.9s-1.2,0.3-2,0.3c-0.9,0-1.7-0.1-2.3-0.4s-1.1-0.6-1.4-1s-0.6-0.9-0.8-1.4S210.1,227.6,210.1,227.1z"/>
				<path class="st3" d="M224.3,211.1h3.5l3.7,20h-3.1l-0.6-3.6h-3.7l-0.5,3.6h-3.1L224.3,211.1z M227.5,225.3l-1.4-10H226l-1.4,10
					H227.5z"/>
			</g>
			<g class="st6">
				<path class="st3" d="M77.4,174.9h3l5.9,16.2h0.1c0-0.4-0.1-0.8-0.1-1.3s-0.1-1-0.1-1.6s-0.1-1.3-0.1-2c0-0.7,0-1.6,0-2.5v-8.8
					h3.3v24.2h-3l-5.8-15.8h-0.1c0,0.4,0.1,0.9,0.1,1.4c0,0.5,0.1,1.1,0.1,1.7s0.1,1.5,0.1,2.3c0,0.9,0,2,0,3.2v7.1h-3.3V174.9z"/>
				<path class="st3" d="M93.3,174.9H97v17.7c0,0.8,0,1.4,0.1,1.9c0.1,0.5,0.2,0.9,0.4,1.2c0.2,0.3,0.4,0.5,0.6,0.6
					c0.3,0.1,0.6,0.2,0.9,0.2s0.7-0.1,0.9-0.2c0.3-0.1,0.5-0.3,0.7-0.6c0.2-0.3,0.3-0.7,0.4-1.2c0.1-0.5,0.1-1.1,0.1-1.9v-17.7h3.7
					v16.8c0,1.2-0.1,2.2-0.3,3c-0.2,0.8-0.4,1.5-0.8,2.1s-0.7,1-1.1,1.3c-0.4,0.3-0.8,0.6-1.2,0.8c-0.4,0.2-0.9,0.3-1.3,0.3
					s-0.8,0.1-1.2,0.1s-0.7,0-1.2-0.1c-0.4,0-0.8-0.2-1.3-0.3s-0.8-0.4-1.2-0.8c-0.4-0.3-0.8-0.8-1.1-1.3s-0.6-1.3-0.7-2.1
					c-0.2-0.8-0.3-1.8-0.3-3V174.9z"/>
				<path class="st3" d="M108.9,174.9h9v2.9h-5.3v7.2h4.1v2.9h-4.1v8.3h5.4v2.9h-9.1V174.9z"/>
				<path class="st3" d="M119.7,194.2c0-0.5,0-1,0.1-1.4c0.1-0.4,0.2-0.9,0.3-1.4h2.8v1.2c0,0.7,0,1.2,0.1,1.7
					c0.1,0.5,0.2,0.9,0.4,1.3c0.2,0.3,0.4,0.6,0.7,0.8c0.3,0.2,0.7,0.3,1.1,0.3c0.7,0,1.2-0.2,1.6-0.6c0.4-0.4,0.6-0.9,0.6-1.7
					c0-0.4,0-0.7-0.1-1c-0.1-0.3-0.1-0.6-0.3-0.9c-0.1-0.3-0.3-0.6-0.5-1s-0.5-0.7-0.8-1.2l-3.8-4.5c-0.7-0.9-1.2-1.7-1.6-2.6
					s-0.6-1.8-0.6-2.8c0-0.8,0.1-1.5,0.4-2.2c0.2-0.7,0.6-1.2,1.1-1.7s1.1-0.9,1.7-1.1c0.7-0.3,1.5-0.4,2.4-0.4c1.1,0,2,0.2,2.7,0.5
					c0.7,0.3,1.3,0.7,1.7,1.2c0.4,0.5,0.7,1,0.9,1.7c0.2,0.6,0.3,1.2,0.3,1.8c0,0.5,0,1-0.1,1.4c-0.1,0.4-0.2,0.9-0.3,1.5h-2.8v-1.1
					c0-1.3-0.2-2.3-0.6-3s-1-1-1.8-1c-0.7,0-1.2,0.2-1.5,0.6c-0.3,0.4-0.5,0.9-0.5,1.5c0,0.3,0,0.6,0.1,0.9c0.1,0.3,0.1,0.5,0.2,0.8
					c0.1,0.2,0.2,0.5,0.4,0.7s0.3,0.4,0.5,0.7l4.3,5.2c0.8,1,1.4,2,1.8,2.9s0.6,1.9,0.6,3c0,0.9-0.1,1.6-0.4,2.3
					c-0.3,0.7-0.7,1.3-1.2,1.8s-1.1,0.9-1.8,1.1s-1.5,0.4-2.4,0.4c-1.1,0-2-0.1-2.7-0.4c-0.7-0.3-1.3-0.7-1.7-1.2
					c-0.4-0.5-0.7-1-0.9-1.6C119.8,195.5,119.7,194.9,119.7,194.2z"/>
				<path class="st3" d="M136.4,177.8h-3.9v-2.9H144v2.9h-3.9v21.3h-3.7V177.8z"/>
				<path class="st3" d="M146.4,174.9h4c0.5,0,1,0,1.5,0.1c0.5,0,1.1,0.1,1.6,0.3c0.5,0.1,1.1,0.4,1.6,0.7c0.5,0.3,1,0.7,1.3,1.2
					c0.4,0.5,0.7,1.1,0.9,1.9s0.4,1.7,0.4,2.8v0.6c0,1.8-0.3,3.3-0.8,4.5s-1.3,2-2.3,2.5l3.9,9.7h-3.9l-3.2-9H150v9h-3.6V174.9z
					 M150.6,187.4c0.6,0,1.2-0.1,1.6-0.2c0.4-0.1,0.8-0.4,1.1-0.7s0.5-0.8,0.6-1.3c0.1-0.6,0.2-1.2,0.2-2v-1.9
					c0-0.6-0.1-1.2-0.2-1.6s-0.3-0.8-0.6-1.1c-0.3-0.3-0.6-0.5-1.1-0.7s-1-0.2-1.7-0.2H150v9.8H150.6z"/>
				<path class="st3" d="M163.9,174.9h4.2l4.5,24.2h-3.7l-0.7-4.3h-4.4l-0.6,4.3h-3.7L163.9,174.9z M167.8,192l-1.7-12.1H166
					l-1.7,12.1H167.8z"/>
			</g>
			<g class="st6">
				<path class="st3" d="M77,130.3h5.1c0.6,0,1.2,0,1.9,0.1c0.7,0,1.4,0.2,2.1,0.4c0.7,0.2,1.4,0.5,2,0.8c0.6,0.4,1.2,0.9,1.7,1.5
					c0.5,0.7,0.9,1.5,1.2,2.4c0.3,1,0.5,2.2,0.5,3.6v0.8c0,2.3-0.3,4.3-1,5.7c-0.7,1.5-1.7,2.5-3,3.2l5,12.3h-5l-4.1-11.5h-1.8v11.5
					H77V130.3z M82.3,146.2c0.8,0,1.5-0.1,2.1-0.3c0.6-0.2,1-0.5,1.4-0.9c0.3-0.4,0.6-1,0.8-1.7c0.2-0.7,0.2-1.6,0.2-2.6v-2.4
					c0-0.8-0.1-1.5-0.2-2.1s-0.4-1.1-0.7-1.4c-0.3-0.4-0.8-0.7-1.4-0.8c-0.6-0.2-1.3-0.3-2.1-0.3h-0.7v12.5H82.3z"/>
				<path class="st3" d="M95.9,130.3h11.4v3.7h-6.8v9.2h5.2v3.7h-5.2v10.6h6.9v3.7H95.9V130.3z"/>
				<path class="st3" d="M108.6,130.3h4.8l3.4,24.4h0.2l3.4-24.4h4.8l-5.6,30.9h-5.3L108.6,130.3z"/>
				<path class="st3" d="M128.2,130.3h4.7v30.9h-4.7V130.3z"/>
				<path class="st3" d="M136.9,154.9c0-0.7,0-1.3,0.1-1.8c0.1-0.6,0.2-1.2,0.4-1.8h3.6v1.5c0,0.8,0.1,1.6,0.2,2.2
					c0.1,0.6,0.3,1.2,0.5,1.6c0.2,0.4,0.5,0.8,0.9,1c0.4,0.2,0.9,0.3,1.4,0.3c0.9,0,1.6-0.2,2-0.7c0.5-0.5,0.7-1.2,0.7-2.1
					c0-0.5,0-0.9-0.1-1.3c-0.1-0.4-0.2-0.8-0.3-1.2c-0.2-0.4-0.4-0.8-0.7-1.3c-0.3-0.4-0.6-0.9-1.1-1.5l-4.9-5.8
					c-0.9-1.1-1.5-2.2-2-3.4s-0.7-2.3-0.7-3.6c0-1,0.2-2,0.5-2.8c0.3-0.9,0.8-1.6,1.4-2.2c0.6-0.6,1.3-1.1,2.2-1.4
					c0.9-0.3,1.9-0.5,3-0.5c1.4,0,2.5,0.2,3.4,0.6c0.9,0.4,1.6,0.9,2.2,1.5c0.5,0.6,0.9,1.3,1.1,2.1c0.2,0.8,0.3,1.6,0.3,2.3
					c0,0.7-0.1,1.3-0.2,1.8c-0.1,0.6-0.2,1.2-0.4,1.9h-3.6v-1.5c0-1.6-0.2-2.9-0.7-3.8s-1.2-1.3-2.3-1.3c-0.9,0-1.5,0.2-2,0.7
					c-0.4,0.5-0.7,1.1-0.7,2c0,0.4,0,0.8,0.1,1.2c0.1,0.3,0.2,0.7,0.3,1c0.1,0.3,0.3,0.6,0.5,0.9s0.4,0.6,0.6,0.9l5.4,6.6
					c1,1.3,1.7,2.5,2.3,3.7c0.5,1.2,0.8,2.4,0.8,3.8c0,1.1-0.2,2.1-0.5,3c-0.3,0.9-0.8,1.6-1.5,2.2c-0.6,0.6-1.4,1.1-2.3,1.4
					s-1.9,0.5-3.1,0.5c-1.4,0-2.6-0.2-3.5-0.6c-0.9-0.4-1.7-0.9-2.2-1.5c-0.5-0.6-0.9-1.3-1.2-2.1
					C137.1,156.5,136.9,155.7,136.9,154.9z"/>
				<path class="st3" d="M158.8,130.3h5.4l5.7,30.9h-4.7l-0.8-5.5h-5.6l-0.8,5.5h-4.8L158.8,130.3z M163.8,152.1l-2.2-15.4h-0.2
					l-2.2,15.4H163.8z"/>
			</g>
		</g>
	</g>
</g>
<g transform="matrix(1, 0, 0, 1, 0, 0)">
	<path id="news-2_1_" class="st3" d="M238.5,129.8l-48.8,14c-2.3,0.6-3.9,2.6-4,5l-4.7,1.4c-1.5,0.4-2.3,2-1.9,3.4c0,0,0,0,0,0
		l8.6,30.2c1,3.4,4.6,5.4,8,4.4l55-15.8c1.5-0.4,2.3-2,1.9-3.4l0,0l-10.7-37.3C241.5,130.2,240,129.4,238.5,129.8z M193,182.2
		l-7.9-27.5l1.8-0.5l7.9,27.5c0.1,0.5-0.2,1-0.7,1.1C193.7,182.9,193.2,182.6,193,182.2L193,182.2z M246.5,167.8l-46.2,13.2
		c0-0.3-0.1-0.6-0.2-0.9l-8.9-31l46.1-13.2L246.5,167.8z M203.2,165.8l15.1-4.3c0.7-0.2,1.2-1,0.9-1.7l-3.1-10.6
		c-0.2-0.7-1-1.2-1.7-0.9l-15.1,4.3c-0.7,0.2-1.2,1-0.9,1.7l0,0l3.1,10.6C201.7,165.6,202.5,166,203.2,165.8L203.2,165.8z
		 M203.8,156.1l8.9-2.5l1.3,4.4l-8.9,2.5L203.8,156.1z M203.8,172.9l-0.8-2.7c-0.2-0.7,0.2-1.5,0.9-1.7l0,0l15.1-4.3
		c0.7-0.2,1.5,0.2,1.7,0.9l0.8,2.7c0.2,0.7-0.2,1.5-0.9,1.7l-15.1,4.3C204.8,174,204,173.6,203.8,172.9z M225.1,166.8l-0.8-2.7
		c-0.2-0.7,0.2-1.5,0.9-1.7l11.5-3.3c0.7-0.2,1.5,0.2,1.7,0.9l0.8,2.7c0.2,0.7-0.2,1.5-0.9,1.7l-11.5,3.3
		C226.1,167.9,225.3,167.5,225.1,166.8L225.1,166.8z M220.5,150.8l-0.8-2.7c-0.2-0.7,0.2-1.5,0.9-1.7l11.5-3.3
		c0.7-0.2,1.5,0.2,1.7,0.9l0.8,2.7c0.2,0.7-0.2,1.5-0.9,1.7l-11.5,3.3C221.5,151.9,220.7,151.5,220.5,150.8L220.5,150.8z
		 M222.8,158.8l-0.8-2.7c-0.2-0.7,0.2-1.5,0.9-1.7l11.5-3.3c0.7-0.2,1.5,0.2,1.7,0.9l0.8,2.7c0.2,0.7-0.2,1.5-0.9,1.7l-11.5,3.3
		C223.8,159.9,223,159.5,222.8,158.8L222.8,158.8z"/>
</g>
</svg>
